<?xml version="1.0" encoding="UTF-8" standalone="no"?>
<svg
   xmlns:dc="http://purl.org/dc/elements/1.1/"
   xmlns:cc="http://creativecommons.org/ns#"
   xmlns:rdf="http://www.w3.org/1999/02/22-rdf-syntax-ns#"
   xmlns:svg="http://www.w3.org/2000/svg"
   xmlns="http://www.w3.org/2000/svg"
   xmlns:sodipodi="http://sodipodi.sourceforge.net/DTD/sodipodi-0.dtd"
   xmlns:inkscape="http://www.inkscape.org/namespaces/inkscape"
   viewBox="0 0 116.22 200.51"
   version="1.1"
   id="svg16"
   sodipodi:docname="splash.svg"
   inkscape:version="0.92.3 (2405546, 2018-03-11)">
  <metadata
     id="metadata20">
    <rdf:RDF>
      <cc:Work
         rdf:about="">
        <dc:format>image/svg+xml</dc:format>
        <dc:type
           rdf:resource="http://purl.org/dc/dcmitype/StillImage" />
        <dc:title>blue_variation_visar_logomark</dc:title>
      </cc:Work>
    </rdf:RDF>
  </metadata>
  <sodipodi:namedview
     pagecolor="#ffffff"
     bordercolor="#666666"
     borderopacity="1"
     objecttolerance="10"
     gridtolerance="10"
     guidetolerance="10"
     inkscape:pageopacity="0"
     inkscape:pageshadow="2"
     inkscape:window-width="1293"
     inkscape:window-height="713"
     id="namedview18"
     showgrid="false"
     inkscape:zoom="2.4735363"
     inkscape:cx="-25.788469"
     inkscape:cy="90.909193"
     inkscape:window-x="67"
     inkscape:window-y="27"
     inkscape:window-maximized="1"
     inkscape:current-layer="svg16" />
  <defs
     id="defs4">
    <style
       id="style2">.cls-1{fill:#436fb5;stroke:#fff;stroke-miterlimit:10;stroke-width:2px;opacity:0.6;}</style>
  </defs>
  <title
     id="title6">blue_variation_visar_logomark</title>
  <g
     id="g852">
    <g
       style="stroke-width:2.26753283"
       transform="matrix(0.44820558,0,0,0.43392585,21.750557,29.8679)"
       id="g900">
      <g
         style="stroke-width:2.26753283"
         id="g837"
         transform="translate(-6.4099813e-8,2.548856)">
        <g
           style="stroke-width:2.26753283"
           id="g847">
          <g
             style="stroke-width:2.26753283"
             id="Layer_2"
             data-name="Layer 2">
            <g
               style="stroke-width:2.26753283"
               id="Layer_1-2"
               data-name="Layer 1">
              <path
                 class="cls-1"
                 d="M 30.75,21 75.52,1.53 V 126.27 L 1,157.86 V 66.37 A 49.5,49.5 0 0 1 30.75,21 Z"
                 id="path8"
                 inkscape:connector-curvature="0"
                 style="opacity:0.6;fill:#436fb5;stroke:#ffffff;stroke-width:4.53506565px;stroke-miterlimit:10" />
              <path
                 class="cls-1"
                 d="M 51.55,42.43 96.33,23 V 147.71 L 21.8,179.3 V 87.8 A 49.48,49.48 0 0 1 51.55,42.43 Z"
                 id="path10"
                 inkscape:connector-curvature="0"
                 style="opacity:0.6;fill:#436fb5;stroke:#ffffff;stroke-width:4.53506565px;stroke-miterlimit:10" />
              <path
                 class="cls-1"
                 d="M 70.44,62.13 115.22,42.67 V 167.41 L 40.69,199 V 107.51 A 49.5,49.5 0 0 1 70.44,62.13 Z"
                 id="path12"
                 inkscape:connector-curvature="0"
                 style="opacity:0.6;fill:#436fb5;stroke:#ffffff;stroke-width:4.53506565px;stroke-miterlimit:10" />
            </g>
          </g>
          <g
             aria-label="VISAR Labs"
             transform="scale(0.79279275,1.2613637)"
             style="font-style:normal;font-variant:normal;font-weight:bold;font-stretch:normal;font-size:39.54533386px;line-height:1.25;font-family:Montserrat;-inkscape-font-specification:'Montserrat, Bold';font-variant-ligatures:normal;font-variant-caps:normal;font-variant-numeric:normal;font-feature-settings:normal;text-align:start;letter-spacing:0px;word-spacing:0px;writing-mode:lr-tb;text-anchor:start;fill:#ffffff;fill-opacity:1;stroke:none;stroke-width:2.26753283"
             id="text829">
            <path
               d="m -16.037379,162.82808 -8.541792,19.77266 -8.423156,-19.77266 h -6.920434 l 11.942691,27.68173 h 6.327254 l 11.9822358,-27.68173 z"
               style="font-style:normal;font-variant:normal;font-weight:bold;font-stretch:normal;font-size:39.54533386px;font-family:Montserrat;-inkscape-font-specification:'Montserrat, Bold';font-variant-ligatures:normal;font-variant-caps:normal;font-variant-numeric:normal;font-feature-settings:normal;text-align:start;writing-mode:lr-tb;text-anchor:start;fill:#ffffff;stroke-width:2.26753283"
               id="path839"
               inkscape:connector-curvature="0" />
            <path
               d="m -7.3979588,190.50981 h 6.40634404 V 162.82808 H -7.3979588 Z"
               style="font-style:normal;font-variant:normal;font-weight:bold;font-stretch:normal;font-size:39.54533386px;font-family:Montserrat;-inkscape-font-specification:'Montserrat, Bold';font-variant-ligatures:normal;font-variant-caps:normal;font-variant-numeric:normal;font-feature-settings:normal;text-align:start;writing-mode:lr-tb;text-anchor:start;fill:#ffffff;stroke-width:2.26753283"
               id="path841"
               inkscape:connector-curvature="0" />
            <path
               d="m 14.673279,190.98436 c 7.909067,0 11.744964,-3.95454 11.744964,-8.58134 0,-10.16315 -16.094951,-6.64362 -16.094951,-11.74497 0,-1.73999 1.463178,-3.16362 5.25953,-3.16362 2.45181,0 5.101348,0.71181 7.671794,2.17499 l 1.977267,-4.86408 c -2.570447,-1.62135 -6.129527,-2.45181 -9.609516,-2.45181 -7.8695215,0 -11.6658735,3.91499 -11.6658735,8.62089 0,10.28178 16.0949505,6.7227 16.0949505,11.90314 0,1.70045 -1.542268,2.9659 -5.33862,2.9659 -3.321808,0 -6.8017971,-1.18636 -9.1349718,-2.88681 l -2.1749934,4.82453 c 2.4518107,1.89818 6.8808882,3.20318 11.2704202,3.20318 z"
               style="font-style:normal;font-variant:normal;font-weight:bold;font-stretch:normal;font-size:39.54533386px;font-family:Montserrat;-inkscape-font-specification:'Montserrat, Bold';font-variant-ligatures:normal;font-variant-caps:normal;font-variant-numeric:normal;font-feature-settings:normal;text-align:start;writing-mode:lr-tb;text-anchor:start;fill:#ffffff;stroke-width:2.26753283"
               id="path843"
               inkscape:connector-curvature="0" />
            <path
               d="m 51.516554,190.50981 h 6.722707 L 45.861572,162.82808 h -6.327254 l -12.338144,27.68173 h 6.564525 l 2.451811,-5.9318 h 12.852234 z m -13.247686,-10.79587 4.389532,-10.59815 4.389532,10.59815 z"
               style="font-style:normal;font-variant:normal;font-weight:bold;font-stretch:normal;font-size:39.54533386px;font-family:Montserrat;-inkscape-font-specification:'Montserrat, Bold';font-variant-ligatures:normal;font-variant-caps:normal;font-variant-numeric:normal;font-feature-settings:normal;text-align:start;writing-mode:lr-tb;text-anchor:start;fill:#ffffff;stroke-width:2.26753283"
               id="path845"
               inkscape:connector-curvature="0" />
            <path
               d="m 85.629345,190.50981 -6.208617,-8.8977 c 3.598625,-1.54227 5.694528,-4.58726 5.694528,-8.73952 0,-6.20861 -4.626804,-10.04451 -12.021781,-10.04451 H 61.111238 v 27.68173 h 6.406344 v -7.71134 h 5.575893 0.316362 l 5.33862,7.71134 z m -6.999524,-17.63722 c 0,3.00545 -1.977266,4.82453 -5.892254,4.82453 h -5.219985 v -9.64906 h 5.219985 c 3.914988,0 5.892254,1.77954 5.892254,4.82453 z"
               style="font-style:normal;font-variant:normal;font-weight:bold;font-stretch:normal;font-size:39.54533386px;font-family:Montserrat;-inkscape-font-specification:'Montserrat, Bold';font-variant-ligatures:normal;font-variant-caps:normal;font-variant-numeric:normal;font-feature-settings:normal;text-align:start;writing-mode:lr-tb;text-anchor:start;fill:#ffffff;stroke-width:2.26753283"
               id="path847"
               inkscape:connector-curvature="0" />
            <path
               d="m 101.3517,190.50981 h 20.28676 v -5.21998 h -13.88041 v -22.46175 h -6.40635 z"
               style="font-style:normal;font-variant:normal;font-weight:bold;font-stretch:normal;font-size:39.54533386px;font-family:Montserrat;-inkscape-font-specification:'Montserrat, Bold';font-variant-ligatures:normal;font-variant-caps:normal;font-variant-numeric:normal;font-feature-settings:normal;text-align:start;writing-mode:lr-tb;text-anchor:start;fill:#ffffff;stroke-width:2.26753283"
               id="path849"
               inkscape:connector-curvature="0" />
            <path
               d="m 133.59599,168.91806 c -3.4009,0 -6.84135,0.90954 -9.17452,2.57045 l 2.21454,4.31044 c 1.54227,-1.22591 3.87544,-1.97727 6.12952,-1.97727 3.32181,0 4.90363,1.54227 4.90363,4.19181 h -4.90363 c -6.48543,0 -9.13497,2.60999 -9.13497,6.36679 0,3.67772 2.9659,6.44589 7.94861,6.44589 3.12409,0 5.33862,-1.02817 6.48544,-2.9659 v 2.64954 h 5.77362 v -12.14042 c 0,-6.44589 -3.75681,-9.45133 -10.24224,-9.45133 z m -0.47455,17.75585 c -2.17499,0 -3.47999,-1.02817 -3.47999,-2.57044 0,-1.42363 0.90955,-2.49136 3.79636,-2.49136 h 4.23135 v 2.17499 c -0.71182,1.93773 -2.49136,2.88681 -4.54772,2.88681 z"
               style="font-style:normal;font-variant:normal;font-weight:bold;font-stretch:normal;font-size:39.54533386px;font-family:Montserrat;-inkscape-font-specification:'Montserrat, Bold';font-variant-ligatures:normal;font-variant-caps:normal;font-variant-numeric:normal;font-feature-settings:normal;text-align:start;writing-mode:lr-tb;text-anchor:start;fill:#ffffff;stroke-width:2.26753283"
               id="path851"
               inkscape:connector-curvature="0" />
            <path
               d="m 161.99696,168.91806 c -2.64954,0 -4.82453,0.83045 -6.40635,2.57045 v -10.32134 h -6.16907 v 29.34264 h 5.89225 V 188.058 c 1.54227,1.85863 3.8359,2.76817 6.68317,2.76817 5.97134,0 10.59815,-4.27089 10.59815,-10.95405 0,-6.68316 -4.62681,-10.95406 -10.59815,-10.95406 z m -1.06773,16.84631 c -3.08453,0 -5.41771,-2.21454 -5.41771,-5.89225 0,-3.67772 2.33318,-5.89226 5.41771,-5.89226 3.08454,0 5.41771,2.21454 5.41771,5.89226 0,3.67771 -2.33317,5.89225 -5.41771,5.89225 z"
               style="font-style:normal;font-variant:normal;font-weight:bold;font-stretch:normal;font-size:39.54533386px;font-family:Montserrat;-inkscape-font-specification:'Montserrat, Bold';font-variant-ligatures:normal;font-variant-caps:normal;font-variant-numeric:normal;font-feature-settings:normal;text-align:start;writing-mode:lr-tb;text-anchor:start;fill:#ffffff;stroke-width:2.26753283"
               id="path853"
               inkscape:connector-curvature="0" />
            <path
               d="m 183.84389,190.82617 c 6.3668,0 10.04452,-2.80771 10.04452,-6.76225 0,-8.38361 -12.85223,-4.86407 -12.85223,-8.50224 0,-1.10727 1.18636,-1.97727 3.95453,-1.97727 1.93772,0 4.03362,0.39545 6.12953,1.58181 l 2.05635,-4.38953 c -2.01681,-1.18636 -5.25953,-1.85863 -8.18588,-1.85863 -6.20862,0 -9.84679,2.84726 -9.84679,6.88089 0,8.50224 12.85223,4.94316 12.85223,8.42315 0,1.18636 -1.06772,1.93772 -3.91498,1.93772 -2.61,0 -5.49681,-0.83045 -7.39498,-2.05635 l -2.05636,4.42907 c 1.97727,1.305 5.61544,2.29363 9.21406,2.29363 z"
               style="font-style:normal;font-variant:normal;font-weight:bold;font-stretch:normal;font-size:39.54533386px;font-family:Montserrat;-inkscape-font-specification:'Montserrat, Bold';font-variant-ligatures:normal;font-variant-caps:normal;font-variant-numeric:normal;font-feature-settings:normal;text-align:start;writing-mode:lr-tb;text-anchor:start;fill:#ffffff;stroke-width:2.26753283"
               id="path855"
               inkscape:connector-curvature="0" />
          </g>
        </g>
      </g>
    </g>
  </g>
</svg>
